<?xml version="1.0" standalone="no"?>
<!DOCTYPE svg PUBLIC "-//W3C//DTD SVG 20010904//EN"
 "http://www.w3.org/TR/2001/REC-SVG-20010904/DTD/svg10.dtd">
<svg version="1.0" xmlns="http://www.w3.org/2000/svg"
 width="1280.000000pt" height="640.000000pt" viewBox="0 0 1280.000000 640.000000"
 preserveAspectRatio="xMidYMid meet">
<g transform="translate(0.000000,640.000000) scale(0.100000,-0.100000)"
fill="#000000" stroke="none">
<path d="M3700 6179 c-107 -3 -234 -10 -283 -14 -75 -6 -85 -9 -70 -20 31 -23
9 -26 -78 -10 -65 11 -95 12 -124 4 -30 -9 -35 -13 -23 -20 8 -5 31 -9 49 -10
19 -2 42 -9 51 -17 14 -12 37 -14 105 -10 94 6 134 0 141 -20 3 -10 -6 -12
-33 -10 -23 2 -40 -2 -42 -9 -3 -9 31 -12 136 -12 78 -1 141 3 141 8 0 11 44
28 93 37 20 3 37 10 37 14 0 13 31 23 95 31 81 10 277 48 283 54 3 3 -37 6
-89 6 -52 1 -116 3 -144 3 -27 1 -138 -1 -245 -5z m-266 -35 c12 -5 13 -10 5
-25 -12 -23 -19 -23 -44 -6 -31 23 -2 47 39 31z m122 -9 l29 -15 -37 0 c-37 0
-59 14 -36 23 7 3 14 6 14 6 1 1 15 -6 30 -14z m109 5 c-27 -12 -43 -12 -25 0
8 5 22 9 30 9 10 0 8 -3 -5 -9z m-169 -31 c10 -17 -13 -36 -27 -22 -12 12 -4
33 11 33 5 0 12 -5 16 -11z"/>
<path d="M8298 6143 c7 -3 16 -2 19 1 4 3 -2 6 -13 5 -11 0 -14 -3 -6 -6z"/>
<path d="M9504 6128 c-5 -8 0 -9 15 -5 12 3 34 -1 49 -9 17 -8 54 -13 97 -13
59 1 64 2 32 9 -21 4 -43 12 -50 19 -15 15 -134 15 -143 -1z"/>
<path d="M7143 6113 c15 -2 37 -2 50 0 12 2 0 4 -28 4 -27 0 -38 -2 -22 -4z"/>
<path d="M6750 6101 c0 -14 54 -23 94 -15 38 7 50 -7 19 -24 -13 -8 -8 -11 24
-16 31 -6 48 -3 76 14 40 24 45 35 21 44 -26 10 -74 7 -74 -5 0 -7 -7 -8 -17
-4 -30 11 -143 16 -143 6z"/>
<path d="M9795 6090 c-16 -7 -12 -9 18 -9 23 -1 36 3 32 9 -7 12 -23 12 -50 0z"/>
<path d="M7085 6070 c3 -5 11 -10 16 -10 6 0 7 5 4 10 -3 6 -11 10 -16 10 -6
0 -7 -4 -4 -10z"/>
<path d="M9803 6035 c-41 -18 -107 -27 -202 -29 -83 -2 -282 -24 -291 -32 -3
-3 -5 -11 -5 -17 0 -7 -11 -13 -25 -14 -151 -12 -180 -16 -180 -23 0 -5 10
-10 22 -12 12 -2 24 -9 26 -17 5 -14 -8 -14 -112 5 -37 7 -39 6 -34 -14 7 -23
-6 -30 -16 -9 -5 10 -7 10 -12 0 -8 -17 -49 -16 -63 1 -7 8 -20 12 -31 9 -15
-4 -18 -11 -13 -37 3 -17 6 -32 7 -33 1 -1 22 -3 46 -4 57 -3 80 -14 80 -39 0
-26 -16 -26 -30 0 -6 11 -21 20 -33 20 -23 0 -49 -13 -48 -24 3 -20 -3 -26
-44 -45 -36 -17 -52 -19 -82 -12 -21 5 -30 9 -20 10 15 1 50 20 86 48 2 1 -1
9 -8 16 -6 8 -12 39 -14 70 -2 54 -3 56 -33 62 -33 6 -84 -8 -84 -23 0 -5 -11
-14 -25 -20 -26 -12 -35 -52 -12 -52 6 0 21 -7 31 -15 15 -11 17 -18 9 -26 -8
-8 -34 -5 -94 10 -87 22 -179 28 -179 11 0 -16 -40 -33 -53 -21 -8 6 -39 6
-91 0 -44 -6 -86 -7 -93 -4 -23 8 -144 -14 -189 -35 -60 -30 -115 -22 -101 14
5 11 1 16 -14 16 -17 0 -20 -5 -17 -32 3 -33 3 -33 -42 -34 -53 0 -101 -18
-98 -36 2 -8 -10 -14 -31 -16 -19 -2 -40 -11 -47 -19 -17 -25 -102 1 -110 33
-3 13 -20 33 -37 44 l-32 22 55 -6 c154 -18 185 -18 205 -3 11 9 17 18 14 22
-20 19 -221 63 -315 68 -23 1 -48 10 -58 20 -19 19 -32 22 -40 8 -3 -5 1 -12
10 -15 10 -4 13 -13 9 -26 -4 -14 -1 -22 10 -26 11 -5 15 -14 11 -30 -3 -12
-1 -26 5 -30 6 -3 9 -15 6 -25 -3 -11 7 -35 23 -57 15 -22 25 -43 21 -49 -3
-5 -23 -19 -43 -32 -41 -24 -44 -31 -27 -48 8 -8 5 -13 -12 -18 -29 -9 -39
-23 -39 -51 0 -29 -20 -35 -64 -22 -33 10 -38 9 -52 -11 -15 -21 -17 -21 -40
-6 -19 12 -29 13 -45 4 -17 -9 -20 -17 -16 -45 5 -32 3 -35 -30 -49 -22 -9
-49 -13 -72 -9 -23 4 -56 0 -85 -10 -35 -12 -52 -13 -67 -5 -11 6 -37 8 -57 5
-24 -4 -47 -1 -66 9 -16 8 -29 14 -30 13 -10 -26 -28 -44 -47 -46 -71 -8 -89
-15 -127 -52 -22 -22 -50 -40 -61 -40 -12 0 -21 -6 -21 -14 0 -17 -54 -46 -85
-46 -13 0 -26 -7 -29 -16 -5 -12 -14 -15 -39 -10 -43 8 -71 -9 -30 -18 17 -4
43 -21 59 -37 25 -26 29 -38 29 -87 l0 -57 40 -6 c22 -3 50 -9 63 -13 13 -4
22 -3 22 3 0 6 10 17 23 26 18 11 31 12 58 5 31 -9 43 -7 82 16 53 29 79 26
105 -14 23 -37 51 -60 91 -78 19 -9 49 -27 66 -40 24 -18 34 -21 43 -12 18 18
15 25 -25 49 -51 30 -123 105 -123 127 0 31 20 42 65 35 33 -4 43 -2 48 11 4
9 14 16 24 16 35 0 98 -28 101 -45 3 -13 -4 -16 -42 -14 -25 2 -48 0 -52 -4
-10 -10 38 -64 69 -78 31 -13 50 -41 42 -61 -3 -8 9 -34 27 -59 19 -24 39 -56
46 -71 16 -39 36 -36 28 3 -5 28 -4 30 17 24 13 -4 17 -3 10 2 -12 9 -33 56
-33 75 0 6 8 8 18 6 10 -3 23 1 30 9 16 16 66 17 80 1 6 -7 13 -31 17 -53 11
-58 21 -73 65 -95 33 -17 43 -18 59 -8 16 10 28 10 56 -1 29 -10 43 -10 65 -1
15 6 39 10 52 8 20 -3 23 -8 20 -43 -4 -61 -42 -154 -69 -172 -20 -13 -30 -14
-64 -4 -31 9 -47 9 -74 0 -27 -10 -46 -10 -92 0 -32 7 -66 17 -75 22 -10 5
-26 9 -37 9 -10 0 -24 7 -31 15 -28 34 -104 7 -93 -34 3 -12 -3 -24 -18 -34
-20 -15 -25 -14 -60 4 -21 10 -45 19 -53 19 -8 0 -26 12 -39 26 -16 17 -38 27
-68 31 -74 9 -133 57 -98 79 13 8 2 76 -14 86 -5 3 -22 2 -35 -3 -14 -6 -31
-8 -39 -5 -7 3 -60 1 -118 -4 -76 -8 -117 -17 -153 -35 -52 -26 -154 -35 -167
-15 -11 17 -22 11 -35 -20 -7 -17 -29 -40 -51 -52 -39 -22 -74 -83 -63 -112 7
-18 -51 -84 -81 -92 -26 -6 -78 -67 -90 -104 -4 -14 -13 -32 -20 -40 -31 -36
-57 -104 -47 -120 19 -31 24 -132 8 -184 -19 -63 -11 -147 16 -154 10 -2 18
-8 18 -13 0 -5 17 -28 39 -52 21 -23 41 -54 44 -68 4 -15 32 -45 69 -75 108
-84 94 -79 150 -59 36 13 64 16 101 11 43 -5 65 -1 125 21 72 28 72 28 72 66
0 21 8 50 17 64 10 15 18 47 19 74 1 82 46 120 104 89 25 -14 183 -13 229 1 9
2 23 -10 35 -33 18 -32 18 -38 6 -54 -8 -9 -34 -53 -57 -98 -36 -71 -44 -81
-66 -78 -17 2 -32 -6 -46 -24 -26 -33 -26 -39 -1 -71 11 -14 20 -34 20 -45 0
-11 11 -22 25 -28 38 -15 26 -60 -16 -60 -15 0 -39 -44 -39 -71 0 -5 21 -34
46 -65 51 -63 94 -157 99 -219 2 -22 7 -59 11 -83 6 -36 3 -48 -14 -72 -12
-16 -26 -48 -32 -72 -18 -81 -13 -117 34 -213 33 -67 46 -107 51 -157 4 -40
16 -84 30 -110 63 -117 89 -175 87 -200 -3 -39 32 -72 66 -63 15 4 63 10 107
15 44 5 89 12 100 16 37 13 107 77 141 128 19 28 41 61 50 74 9 12 17 41 17
63 0 38 3 42 43 62 41 19 44 24 44 60 0 21 -5 58 -11 83 l-12 45 53 50 c29 27
67 56 86 65 55 26 65 52 58 143 l-7 78 -45 -13 c-25 -8 -62 -14 -83 -14 -42 0
-49 -10 -41 -57 3 -20 0 -33 -6 -33 -19 0 -27 23 -32 90 l-5 65 -58 30 c-72
38 -107 91 -107 167 0 30 3 39 14 35 23 -9 36 15 36 65 0 29 4 48 11 48 7 0
22 11 35 25 13 14 34 25 47 25 27 0 52 -23 42 -39 -3 -6 19 -27 49 -46 31 -19
60 -44 66 -55 6 -11 19 -24 31 -30 17 -9 21 -7 32 17 19 44 73 108 179 213 86
85 102 106 147 199 53 109 66 167 34 157 -10 -3 -49 -12 -88 -20 -38 -8 -80
-17 -91 -21 -29 -9 -78 36 -69 63 4 16 -10 34 -64 82 -48 43 -71 72 -75 93 -4
17 -18 44 -33 59 -17 18 -29 44 -34 79 -5 29 -17 61 -29 74 -11 12 -20 29 -20
39 0 9 -9 34 -20 54 -26 50 -90 182 -90 188 0 2 6 4 13 4 6 0 20 -15 30 -32
l19 -33 14 25 c7 14 13 20 14 14 0 -6 20 -42 45 -80 25 -37 45 -74 45 -81 0
-7 5 -13 10 -13 16 0 50 -62 50 -93 0 -17 10 -38 26 -54 55 -55 100 -147 111
-228 7 -51 11 -60 28 -58 27 2 97 28 170 64 33 16 65 29 71 29 7 0 19 12 29
26 15 23 16 32 5 67 -13 45 -10 50 43 67 40 12 57 35 57 72 -1 13 -1 35 -2 50
0 14 7 41 16 59 21 43 16 45 -19 9 -24 -25 -36 -30 -77 -30 -26 0 -49 5 -49
10 -1 6 -2 16 -3 23 -1 6 -10 14 -21 17 -11 3 -22 15 -24 25 -2 11 -14 33 -27
48 -31 37 -31 57 2 57 21 0 25 4 22 23 -2 15 -11 23 -29 25 -25 3 -49 35 -49
66 0 8 -11 21 -25 30 -42 27 -58 59 -44 89 10 21 8 29 -8 46 -20 21 -43 83
-43 114 0 25 19 30 45 13 23 -15 28 -15 57 0 29 15 32 15 44 -1 12 -15 13 -15
23 4 17 30 14 43 -18 82 -65 79 -71 138 -15 160 33 12 28 37 -11 59 -52 28
-43 117 10 104 15 -4 25 -2 25 5 0 6 17 19 38 30 39 20 113 21 137 1 14 -11
245 -23 245 -13 0 3 -8 11 -17 18 -16 12 -16 14 0 38 9 15 17 33 17 40 0 10
23 18 73 26 39 6 95 16 122 22 108 22 121 22 141 1 30 -32 98 -48 140 -33 30
11 38 10 69 -9 19 -12 47 -38 63 -58 30 -37 44 -42 121 -42 21 0 46 -9 67 -25
18 -14 42 -25 53 -25 29 0 36 -18 15 -41 -9 -10 -22 -29 -28 -42 -9 -17 -21
-22 -51 -22 -36 -1 -41 -4 -49 -33 -8 -25 -16 -32 -40 -34 -29 -3 -31 -6 -29
-39 3 -45 -25 -76 -54 -61 -24 12 -182 21 -189 10 -3 -4 -21 -8 -40 -8 -35 0
-70 -17 -111 -53 -19 -16 -26 -18 -56 -8 -23 8 -39 22 -47 41 -20 49 -44 63
-95 58 -35 -4 -51 -1 -68 12 -15 13 -27 15 -39 9 -21 -11 -68 8 -68 28 0 16
-42 17 -58 1 -7 -7 -12 -38 -12 -69 0 -63 -12 -80 -39 -55 -16 15 -18 14 -17
-6 1 -17 -5 -24 -21 -26 -27 -4 -28 -11 -8 -38 8 -10 15 -32 15 -48 0 -23 3
-27 18 -21 66 27 80 26 152 -7 78 -36 91 -57 70 -108 -16 -39 -7 -108 16 -125
17 -12 17 -14 1 -38 -17 -26 -16 -27 12 -59 41 -48 48 -76 22 -94 -37 -26 -23
-34 57 -34 l77 0 40 -45 c22 -25 47 -45 57 -45 22 0 34 -20 18 -30 -9 -6 -9
-12 0 -29 15 -28 51 -24 65 7 17 38 30 18 37 -59 8 -92 18 -132 56 -234 82
-218 85 -224 114 -198 24 21 51 70 55 98 2 11 5 51 7 90 3 60 7 71 27 85 13 8
59 47 101 87 42 40 82 73 87 73 6 0 11 6 11 13 0 30 27 49 74 53 27 1 56 10
67 20 15 14 21 14 34 4 8 -7 15 -20 15 -28 0 -23 29 17 30 40 0 9 11 29 25 44
13 14 27 42 31 61 5 25 16 41 44 58 21 13 40 30 43 37 7 20 40 -3 52 -36 8
-22 5 -35 -13 -68 -23 -39 -23 -40 -4 -45 11 -3 26 -19 33 -36 6 -18 23 -42
37 -54 21 -17 23 -24 14 -36 -14 -17 -7 -43 14 -51 10 -4 13 -13 8 -32 -7 -26
-6 -26 47 -22 48 3 54 1 65 -22 31 -63 36 -79 32 -101 -2 -20 -10 -25 -48 -29
-44 -5 -45 -6 -48 -43 -3 -34 1 -43 36 -75 22 -21 41 -46 44 -57 3 -18 6 -18
33 10 17 17 42 37 57 44 60 30 55 137 -10 206 -82 86 -86 111 -25 170 38 37
69 44 103 23 15 -10 22 -10 32 0 6 6 18 12 26 12 8 0 28 6 45 14 18 8 50 19
72 25 42 11 145 93 145 115 0 7 16 33 34 58 42 55 56 98 32 98 -18 0 -22 15
-6 25 24 15 -4 86 -54 144 l-21 23 50 44 c43 38 46 44 27 44 -13 0 -32 -5 -42
-10 -14 -8 -22 -6 -32 8 -7 10 -21 21 -30 25 -22 8 -24 47 -3 47 8 0 38 16 66
36 57 40 85 39 75 -2 -6 -23 -4 -26 11 -20 67 26 106 13 101 -33 -2 -20 2 -27
20 -29 25 -4 26 -7 22 -74 -1 -30 2 -48 9 -48 27 0 81 30 81 45 0 25 -29 88
-51 111 -19 20 -19 23 -4 35 9 8 27 24 38 37 91 95 89 94 123 87 55 -10 82 10
228 174 17 19 32 50 37 74 4 23 13 57 20 75 13 32 13 35 -14 58 -22 19 -32 22
-53 14 -35 -14 -60 -12 -76 3 -7 7 -21 16 -30 20 -18 7 -25 27 -9 27 9 0 95
54 181 114 42 29 52 31 165 38 161 9 188 9 199 -2 16 -16 64 -11 83 8 44 43
105 75 154 80 45 4 51 2 56 -17 3 -11 7 -21 9 -21 12 0 81 38 96 52 10 10 24
15 33 12 27 -11 -10 -60 -67 -89 -29 -15 -62 -35 -73 -45 -11 -11 -38 -26 -59
-35 -21 -9 -49 -28 -63 -43 -22 -24 -24 -33 -19 -75 6 -51 26 -117 36 -117 3
0 30 27 60 60 30 33 62 60 72 60 11 0 18 8 18 20 0 11 9 25 20 32 23 15 25 30
8 57 -9 15 -7 24 11 47 27 34 61 43 186 49 65 3 104 10 140 26 68 30 141 49
193 49 40 0 41 1 30 20 -7 11 -18 20 -24 20 -6 0 -17 6 -23 14 -9 11 -3 14 31
19 28 4 48 14 59 29 16 20 21 21 38 11 12 -7 35 -13 51 -13 17 0 43 -6 58 -14
15 -7 42 -16 59 -19 26 -5 35 -2 43 13 6 11 19 20 30 20 31 0 33 19 3 25 -15
4 -37 8 -47 10 -11 2 -26 -1 -33 -7 -10 -8 -19 -6 -37 11 -38 36 -228 82 -363
88 -101 5 -113 4 -113 -11 0 -25 -23 -29 -65 -12 -28 12 -72 16 -169 16 -119
0 -133 2 -149 20 -11 13 -30 20 -54 21 -222 4 -239 5 -273 22 -22 11 -57 18
-95 18 -33 -1 -91 3 -130 9 -74 9 -104 5 -120 -16 -10 -14 -212 -23 -232 -11
-6 4 -19 0 -29 -8 -26 -19 -60 -19 -95 2 -20 12 -27 23 -23 35 6 20 -7 24 -97
32 -42 3 -63 0 -79 -11 -20 -14 -36 -15 -129 -4 -122 14 -326 17 -390 6 -34
-6 -43 -5 -39 6 4 13 64 32 156 48 94 17 59 41 -61 41 -55 0 -101 6 -124 15
-44 19 -108 19 -150 0z m-2123 -1001 c0 -3 -11 -22 -25 -42 -23 -33 -23 -37
-7 -45 49 -27 124 -81 129 -95 4 -9 -3 -22 -16 -34 -29 -22 -117 -24 -176 -3
-51 19 -113 18 -145 0 -14 -8 -40 -14 -57 -15 -18 0 -33 -4 -33 -10 0 -5 -18
-10 -40 -10 -42 0 -55 18 -20 27 24 6 23 5 8 37 -9 21 -8 29 5 44 10 10 17 24
17 30 0 6 20 33 44 58 l43 47 46 -13 c38 -10 46 -16 44 -34 -2 -16 3 -21 23
-21 20 0 24 5 22 21 -3 24 10 37 53 52 33 11 85 15 85 6z"/>
<path d="M2295 6030 c-19 -8 -19 -9 2 -9 12 -1 25 4 28 9 7 12 -2 12 -30 0z"/>
<path d="M2368 6033 c6 -2 18 -2 25 0 6 3 1 5 -13 5 -14 0 -19 -2 -12 -5z"/>
<path d="M2425 6005 c-19 -15 -18 -16 27 -12 32 3 51 0 61 -10 10 -11 25 -12
53 -7 l39 7 -37 13 c-68 23 -121 27 -143 9z"/>
<path d="M2652 6008 c3 -8 25 -13 59 -14 31 -1 39 0 19 3 -19 2 -39 9 -44 14
-14 13 -38 11 -34 -3z"/>
<path d="M2955 6010 c-3 -5 0 -13 9 -16 21 -8 71 -1 71 11 0 14 -72 19 -80 5z"/>
<path d="M3240 6001 c8 -15 23 -20 77 -23 38 -2 79 0 93 3 18 5 12 8 -26 8
-27 1 -59 8 -70 16 -10 8 -34 15 -52 15 -29 0 -32 -2 -22 -19z"/>
<path d="M8332 5993 c-35 -8 -83 -28 -107 -44 -23 -16 -47 -29 -52 -29 -6 0
-18 -9 -28 -20 -18 -19 -17 -20 3 -20 11 0 24 -4 27 -10 3 -5 22 -10 42 -10
30 0 34 2 23 15 -7 8 -10 21 -7 28 6 17 94 60 173 86 53 18 55 20 24 19 -19 0
-63 -7 -98 -15z"/>
<path d="M11031 6001 c-20 -13 23 -25 57 -15 l27 7 -25 7 c-35 11 -43 11 -59
1z"/>
<path d="M3470 5990 c-29 -5 -22 -7 40 -11 41 -2 89 -2 105 0 30 5 30 5 5 12
-31 9 -104 9 -150 -1z"/>
<path d="M11133 5993 c9 -2 23 -2 30 0 6 3 -1 5 -18 5 -16 0 -22 -2 -12 -5z"/>
<path d="M3128 5983 c6 -2 18 -2 25 0 6 3 1 5 -13 5 -14 0 -19 -2 -12 -5z"/>
<path d="M2146 5931 l-28 -30 36 -15 c42 -17 83 -13 136 16 40 21 92 26 72 6
-7 -7 -12 -15 -12 -19 0 -13 62 -29 109 -29 25 0 56 -3 69 -6 43 -12 21 -24
-44 -24 -41 0 -63 -4 -59 -10 3 -5 24 -10 45 -10 21 0 42 -5 46 -11 8 -14 173
-6 202 10 13 7 31 7 56 0 52 -14 100 -8 104 14 3 12 -3 17 -21 17 -25 0 -80
58 -75 79 4 12 -7 14 -42 7 -21 -4 -30 -11 -30 -26 0 -22 -22 -27 -38 -7 -7 8
-41 13 -95 15 -56 1 -102 8 -133 20 -32 13 -88 22 -159 26 l-110 6 -29 -29z"/>
<path d="M2994 5943 c-42 -5 -52 -36 -17 -52 26 -12 93 -5 93 9 0 4 -7 10 -15
14 -8 3 -14 11 -13 17 4 14 -8 17 -48 12z"/>
<path d="M3134 5935 c-4 -8 -4 -22 0 -30 3 -8 -4 -24 -16 -34 -25 -24 -18 -51
15 -51 13 0 32 -9 42 -20 17 -19 17 -20 -11 -32 -16 -7 -32 -18 -37 -25 -4 -7
-14 -10 -21 -7 -17 7 -28 42 -15 50 18 11 -3 24 -38 24 -30 0 -34 -2 -23 -15
37 -44 -75 -60 -210 -29 -74 16 -117 8 -106 -22 6 -17 -4 -18 -41 -3 -15 6
-69 11 -119 10 -83 -2 -92 0 -97 18 -4 16 -13 19 -49 19 -25 0 -72 6 -106 12
-34 7 -82 10 -106 8 -25 -3 -49 -1 -54 4 -6 6 -17 6 -29 -1 -14 -7 -27 -6 -48
5 -15 8 -35 12 -44 10 -9 -3 -47 -8 -86 -11 -38 -4 -92 -9 -120 -12 -73 -9
-128 -8 -235 5 -176 22 -535 51 -565 46 -105 -17 -154 -29 -181 -45 -17 -11
-40 -19 -51 -19 -54 0 -13 -32 62 -49 38 -9 46 -38 12 -46 -14 -4 -35 -1 -47
5 -13 7 -37 9 -58 5 -49 -9 -55 -14 -41 -32 10 -11 32 -14 96 -12 85 3 111 -6
100 -34 -3 -9 -27 -18 -58 -22 -29 -4 -66 -17 -81 -28 l-28 -21 27 -28 c22
-23 35 -28 63 -26 27 2 37 -1 44 -17 8 -18 19 -21 74 -23 36 -1 70 -6 75 -11
13 -13 -10 -49 -46 -71 -46 -29 -18 -24 34 5 24 13 63 33 86 44 48 22 52 52 6
43 -19 -4 -24 -2 -18 7 4 7 18 11 32 8 15 -3 37 5 60 20 48 33 77 43 93 33 9
-6 7 -10 -9 -15 -20 -6 -50 -45 -34 -45 24 1 92 27 107 43 21 21 29 21 84 2
23 -8 76 -17 118 -20 53 -4 89 -12 125 -31 33 -16 63 -24 86 -22 23 2 39 -3
46 -13 7 -9 17 -14 24 -12 6 2 26 -17 44 -42 18 -25 44 -51 58 -58 15 -7 27
-22 29 -35 2 -14 10 -22 23 -22 10 0 19 -6 19 -12 1 -7 18 -31 40 -53 27 -27
36 -41 28 -46 -15 -10 -15 -10 50 -48 52 -31 74 -28 26 4 -36 23 -17 40 23 20
40 -20 57 -41 49 -60 -4 -11 -13 -14 -32 -9 -24 6 -26 5 -20 -12 16 -41 18
-74 7 -126 -14 -66 -1 -167 26 -205 10 -14 27 -42 38 -62 40 -71 56 -88 106
-111 46 -22 54 -31 80 -90 17 -36 43 -79 60 -96 17 -18 28 -39 27 -51 -2 -15
8 -29 32 -45 22 -15 37 -34 40 -53 5 -28 30 -48 30 -23 0 20 -65 123 -107 168
-30 34 -41 87 -19 96 26 10 61 -20 74 -63 7 -24 30 -56 62 -86 27 -26 50 -52
50 -57 0 -5 25 -35 56 -65 61 -61 88 -112 78 -149 -8 -31 41 -68 170 -130 94
-45 103 -47 157 -41 55 7 58 6 92 -29 21 -21 60 -44 93 -56 59 -20 83 -21 45
0 -23 12 -28 39 -10 57 5 5 13 36 16 67 3 31 10 56 14 56 5 0 9 8 9 18 0 9 7
30 15 46 20 37 20 36 -21 36 -45 0 -74 -15 -74 -39 0 -39 -37 -68 -93 -75 -77
-10 -101 4 -138 80 -29 58 -31 69 -25 126 4 35 7 77 6 93 -1 54 9 73 58 106
50 34 77 39 156 25 41 -6 48 -5 43 7 -4 10 2 17 16 21 37 10 125 7 133 -5 3
-6 19 -9 34 -6 34 7 70 -26 70 -64 0 -26 48 -109 63 -109 20 0 18 38 -7 112
-15 44 -25 90 -22 102 6 24 71 88 128 126 44 30 62 63 48 90 -11 21 -13 63 -3
73 3 4 12 -1 19 -11 12 -16 13 -16 14 0 0 9 12 30 26 45 14 15 32 35 40 45 9
9 31 19 50 22 25 5 34 12 34 27 0 33 18 57 53 72 113 49 145 59 171 51 16 -5
14 -8 -13 -21 -17 -9 -31 -22 -31 -29 0 -19 7 -18 37 6 14 11 35 20 47 20 47
0 48 17 2 29 -35 8 -49 18 -61 41 -9 17 -20 30 -25 30 -20 0 -9 21 18 32 l27
12 -30 4 c-40 5 -102 -14 -142 -45 -19 -14 -36 -23 -40 -19 -9 9 56 74 81 82
12 4 32 15 45 26 21 16 39 18 132 16 90 -2 110 0 126 15 11 9 35 20 54 23 19
4 40 11 47 17 20 15 14 45 -10 52 -13 4 -32 15 -43 25 -11 10 -31 21 -45 25
-37 11 -80 44 -80 61 0 17 -88 114 -103 114 -5 0 -20 -11 -33 -25 -32 -35 -67
-41 -106 -18 -22 13 -34 28 -36 46 -2 15 -9 27 -15 27 -7 0 -34 12 -61 26 -28
15 -58 24 -72 21 -14 -2 -43 -1 -67 3 -23 5 -45 6 -48 4 -4 -2 -3 -23 2 -45 8
-33 6 -45 -6 -59 -13 -15 -12 -18 16 -39 40 -30 37 -67 -9 -98 -18 -12 -38
-23 -43 -25 -7 -2 -6 -20 2 -52 11 -44 10 -50 -6 -62 -28 -21 -47 -17 -83 15
-21 20 -34 42 -38 70 -6 39 -8 41 -41 41 -39 0 -127 26 -160 48 -12 7 -49 16
-82 19 -48 5 -62 10 -67 25 -3 11 -21 26 -40 34 -26 11 -34 20 -34 39 0 29 48
87 93 110 17 9 43 23 57 31 14 7 36 14 49 14 14 0 37 15 60 39 32 36 40 40 81
38 56 -2 115 20 100 38 -6 7 -8 20 -4 29 4 12 -3 20 -27 31 -34 14 -34 14 39
15 40 0 82 4 92 10 14 7 34 3 82 -18 35 -16 76 -32 93 -36 58 -15 73 -48 31
-67 -13 -6 -27 -20 -29 -30 -4 -16 -15 -19 -66 -19 -37 0 -61 -4 -61 -11 0 -7
21 -8 64 -4 64 7 90 0 145 -40 17 -12 98 -34 126 -34 17 0 15 2 -8 15 -43 23
-23 34 35 19 28 -8 55 -12 60 -9 12 7 -10 44 -26 44 -23 0 -65 40 -59 55 7 21
29 19 73 -6 38 -22 39 -22 77 -4 l38 18 -35 15 c-19 9 -64 23 -100 32 -59 15
-65 19 -63 42 1 23 -4 26 -55 38 -31 7 -61 17 -66 22 -6 4 -24 8 -40 8 -33 0
-109 25 -141 47 -11 7 -31 13 -45 13 -18 0 -21 -3 -11 -9 23 -15 2 -31 -40
-31 -28 0 -39 4 -39 15 0 24 -44 36 -95 26 -56 -10 -63 -16 -48 -40 17 -27 7
-31 -29 -14 -24 12 -29 20 -25 40 4 24 3 24 -32 18 -40 -7 -77 -37 -67 -54 4
-6 21 -11 37 -11 17 0 28 -4 24 -10 -3 -5 6 -12 20 -15 14 -3 36 -7 50 -10 36
-8 32 -37 -10 -74 -20 -17 -38 -31 -41 -31 -18 0 -44 24 -44 40 0 23 -29 27
-49 8 -10 -11 -16 -9 -28 10 -9 12 -24 22 -35 22 -10 0 -22 8 -25 18 -9 22
-29 42 -42 42 -17 0 -23 20 -11 35 7 8 25 15 41 15 35 0 46 16 16 24 -41 11
-87 7 -93 -9z m-74 -175 c0 -5 -4 -10 -10 -10 -5 0 -10 5 -10 10 0 6 5 10 10
10 6 0 10 -4 10 -10z m-755 -30 c3 -5 19 -10 36 -10 31 0 37 -11 17 -28 -12
-8 -125 -32 -156 -32 -7 0 -12 9 -12 20 0 12 -7 20 -17 20 -26 0 -5 14 40 27
54 14 84 16 92 3z m1693 -18 c2 -7 -8 -12 -25 -12 -36 0 -46 9 -32 26 12 14
50 5 57 -14z m-640 -30 c3 -9 -2 -13 -14 -10 -9 1 -19 9 -22 16 -3 9 2 13 14
10 9 -1 19 -9 22 -16z m-833 -106 c11 0 36 3 55 7 l35 7 -27 -21 c-35 -29 -93
-49 -140 -49 -41 0 -59 15 -28 25 11 3 25 15 31 26 8 15 16 18 32 12 12 -4 31
-7 42 -7z m517 -298 c22 -17 61 -104 53 -118 -9 -15 -25 -2 -25 20 0 12 -9 22
-24 26 -34 8 -61 50 -45 70 14 17 21 18 41 2z m1303 -8 c-3 -5 -10 -10 -16
-10 -5 0 -9 5 -9 10 0 6 7 10 16 10 8 0 12 -4 9 -10z m-910 -181 c4 -5 18 -14
31 -19 15 -6 27 -20 30 -37 5 -26 9 -28 62 -31 61 -3 92 -22 92 -55 0 -15 -5
-18 -21 -14 -15 4 -22 -1 -29 -18 -12 -31 -31 -41 -44 -24 -6 8 -18 14 -26 14
-14 0 -15 4 -7 36 5 24 -29 32 -56 14 -22 -14 -27 -25 -27 -60 0 -46 -21 -78
-44 -69 -19 7 -27 42 -19 89 8 53 20 75 41 75 9 0 -1 9 -23 19 -30 13 -47 15
-67 9 -32 -11 -78 -7 -80 7 -1 6 25 24 58 42 59 32 117 42 129 22z m345 -174
c0 -19 -36 -38 -60 -30 -11 4 -25 -1 -37 -13 -42 -45 -140 -68 -150 -37 -4 12
52 35 85 35 12 0 29 11 38 24 11 18 27 26 57 29 23 2 48 4 55 5 6 1 12 -5 12
-13z"/>
<path d="M3448 5003 c7 -3 16 -2 19 1 4 3 -2 6 -13 5 -11 0 -14 -3 -6 -6z"/>
<path d="M7150 5837 c-25 -4 -67 -10 -95 -13 -76 -7 -198 -72 -281 -150 -35
-32 -66 -49 -164 -86 -39 -16 -66 -32 -68 -42 -2 -10 6 -37 17 -62 18 -37 26
-44 50 -44 17 0 46 9 66 21 40 24 61 20 75 -15 5 -13 14 -27 20 -31 7 -4 18
-23 26 -41 14 -34 28 -42 39 -24 3 5 24 14 45 20 35 10 40 14 40 41 0 23 7 34
35 50 41 25 44 36 10 49 -54 20 -19 86 60 113 22 8 44 23 50 35 9 21 44 42 70
42 8 0 15 8 15 18 0 29 -29 62 -56 62 -15 0 -24 6 -24 16 0 12 5 14 18 8 39
-17 106 -11 135 13 16 13 27 23 25 24 -26 5 -72 3 -108 -4z"/>
<path d="M3760 5760 c-12 -8 -9 -10 13 -10 15 0 27 5 27 10 0 13 -20 13 -40 0z"/>
<path d="M5807 5704 c-3 -3 -27 -7 -53 -9 -27 -2 -65 -7 -85 -10 -22 -4 -40
-2 -44 4 -3 6 -12 11 -20 11 -11 0 -11 -5 1 -29 11 -23 25 -32 63 -41 41 -10
59 -8 125 9 84 21 91 25 82 39 -7 12 -62 32 -69 26z"/>
<path d="M3444 5663 c-10 -37 21 -56 59 -36 18 9 39 12 56 8 44 -11 13 8 -50
31 l-59 22 -6 -25z"/>
<path d="M6182 5428 c-17 -17 -15 -53 3 -68 8 -7 15 -19 15 -26 0 -8 10 -14
25 -14 18 0 26 -7 31 -24 7 -29 -1 -46 -22 -46 -8 0 -14 -10 -14 -25 0 -16 6
-25 15 -25 22 0 18 -15 -7 -28 -22 -11 -21 -12 7 -8 17 3 55 8 86 11 47 5 58
10 68 31 15 33 14 34 -9 34 -11 0 -20 5 -20 10 0 6 -23 34 -51 62 -44 44 -50
54 -40 70 16 26 14 28 -19 28 -20 0 -30 5 -30 15 0 18 -21 20 -38 3z"/>
<path d="M1150 5410 c-13 -8 -13 -10 2 -10 9 0 20 5 23 10 8 13 -5 13 -25 0z"/>
<path d="M1850 5340 c0 -5 5 -10 11 -10 5 0 7 5 4 10 -3 6 -8 10 -11 10 -2 0
-4 -4 -4 -10z"/>
<path d="M6080 5310 c0 -6 -12 -15 -26 -20 -22 -9 -24 -13 -14 -25 10 -13 10
-19 -4 -34 -26 -29 -4 -35 54 -14 43 15 50 21 50 45 0 15 5 30 10 33 6 4 8 11
5 16 -8 12 -75 12 -75 -1z"/>
<path d="M11175 5248 c-2 -7 -1 -45 3 -85 l7 -71 24 19 c23 19 23 20 7 63 -9
24 -16 48 -15 52 3 19 -2 34 -11 34 -6 0 -13 -6 -15 -12z"/>
<path d="M4428 5163 c-22 -26 -61 -93 -57 -98 8 -7 144 -9 156 -2 21 13 3 47
-26 47 -38 1 -64 24 -56 49 8 26 3 27 -17 4z"/>
<path d="M4540 5040 c0 -5 5 -10 10 -10 6 0 10 5 10 10 0 6 -4 10 -10 10 -5 0
-10 -4 -10 -10z"/>
<path d="M11181 5034 c0 -11 3 -14 6 -6 3 7 2 16 -1 19 -3 4 -6 -2 -5 -13z"/>
<path d="M11165 4920 c-4 -16 -13 -34 -22 -38 -11 -7 -5 -11 25 -16 29 -4 49
-1 71 12 38 21 39 29 2 37 -16 3 -35 13 -42 21 -18 21 -27 17 -34 -16z"/>
<path d="M6070 4809 c0 -16 -5 -40 -12 -54 -9 -19 -9 -28 0 -37 7 -7 12 -20
12 -30 0 -10 7 -18 15 -18 15 0 19 13 29 87 3 23 8 48 12 56 4 10 -4 16 -25
19 -28 4 -31 2 -31 -23z"/>
<path d="M6657 4793 c-4 -3 -7 -17 -7 -30 0 -33 24 -24 28 10 3 26 -7 35 -21
20z"/>
<path d="M11110 4768 c0 -48 -34 -96 -83 -118 -23 -11 -47 -28 -54 -38 -9 -15
-24 -20 -59 -20 -25 -1 -58 -9 -73 -18 -34 -23 -14 -28 38 -10 40 13 43 13 62
-7 20 -22 21 -22 35 -2 8 11 27 20 42 21 15 1 43 9 63 18 31 13 37 21 43 55 3
22 14 53 23 69 14 25 15 34 5 56 -17 38 -42 34 -42 -6z"/>
<path d="M6820 4675 c31 -18 40 -18 40 -2 0 7 -14 13 -33 14 l-32 2 25 -14z"/>
<path d="M10870 4529 c-18 -15 -19 -18 -5 -11 11 5 27 11 35 14 8 2 10 7 4 10
-5 4 -21 -3 -34 -13z"/>
<path d="M10779 4525 c-9 -8 3 -75 12 -75 17 0 31 51 18 66 -12 14 -22 18 -30
9z"/>
<path d="M10450 4171 c-13 -26 -14 -69 0 -55 15 15 30 74 20 74 -5 0 -14 -9
-20 -19z"/>
<path d="M3590 4112 c0 -4 21 -14 48 -21 26 -8 64 -27 84 -43 27 -21 46 -28
69 -26 29 3 24 7 -63 51 -89 44 -138 58 -138 39z"/>
<path d="M3900 3986 c0 -32 26 -44 75 -33 l45 10 -27 19 c-34 22 -93 24 -93 4z"/>
<path d="M10057 3993 c-14 -13 -6 -33 12 -33 16 0 31 18 31 36 0 7 -36 5 -43
-3z"/>
<path d="M10450 3929 c0 -12 -5 -40 -12 -61 -10 -35 -10 -41 5 -50 9 -5 17
-16 17 -24 0 -8 4 -13 8 -10 5 3 7 19 4 36 -3 20 2 37 13 50 11 13 15 26 10
42 -13 39 -45 52 -45 17z"/>
<path d="M3475 3789 c-68 -36 -71 -42 -41 -82 14 -18 26 -41 26 -50 0 -9 16
-24 35 -33 19 -9 35 -21 35 -28 0 -6 4 -5 9 3 6 9 2 26 -11 47 -20 34 -20 44
-2 137 7 33 1 33 -51 6z"/>
<path d="M3853 3673 c-24 -8 -43 -21 -43 -28 0 -7 -17 -34 -39 -61 -37 -48
-38 -50 -30 -104 12 -87 11 -99 -16 -126 -41 -41 -38 -46 65 -94 30 -14 24
-58 -12 -90 -18 -17 -42 -38 -53 -48 -11 -10 -25 -27 -32 -38 -11 -18 -13 -18
-41 -2 -17 9 -33 14 -36 11 -11 -11 8 -65 33 -92 14 -16 50 -82 79 -147 30
-66 59 -130 66 -144 6 -14 41 -43 77 -65 91 -56 108 -74 115 -127 7 -49 -11
-267 -27 -320 -5 -18 -12 -73 -15 -123 -6 -82 -39 -201 -64 -228 -4 -5 -6 -26
-3 -47 3 -21 1 -52 -5 -69 -10 -27 -8 -32 10 -42 18 -10 20 -17 14 -59 -10
-73 -25 -110 -46 -110 -24 0 -34 -16 -17 -27 31 -18 21 -73 -13 -73 -16 0 -12
-30 5 -36 8 -4 15 -14 15 -23 0 -9 5 -22 10 -27 6 -6 16 -30 23 -54 14 -47 32
-62 39 -32 4 13 18 22 44 27 50 9 62 20 57 49 -4 18 2 29 21 41 14 10 26 23
26 30 0 8 14 23 30 35 32 23 39 40 17 40 -8 0 -22 9 -31 19 -22 24 -7 58 29
67 28 7 50 58 50 119 l0 39 41 -2 c39 -3 40 -2 50 35 9 37 11 38 59 44 70 9
87 16 109 45 13 19 15 29 7 37 -6 6 -11 18 -11 27 0 9 -9 25 -20 35 -29 27
-15 36 32 19 22 -7 50 -14 62 -14 29 0 79 53 107 113 12 27 30 52 40 55 33 13
72 83 76 136 1 27 10 57 18 66 24 27 132 80 163 80 15 1 36 8 47 18 44 38 95
192 95 289 0 46 4 64 16 71 9 5 25 25 37 45 12 19 35 51 50 71 51 63 46 157
-9 170 -15 4 -47 24 -71 45 -40 35 -49 39 -122 45 -65 6 -81 11 -86 26 -5 17
-70 50 -97 50 -6 0 -20 -8 -31 -17 -19 -18 -20 -17 -14 9 6 23 4 27 -23 33
-16 4 -34 4 -40 0 -14 -9 -12 2 6 29 14 22 13 27 -5 62 -12 21 -21 44 -21 49
0 14 -47 58 -77 74 -12 6 -43 11 -70 11 -50 1 -93 26 -106 63 -4 10 -23 25
-42 33 -19 8 -35 21 -35 29 0 9 -8 18 -17 22 -10 3 -26 13 -36 21 -14 13 -23
13 -56 2 -29 -9 -43 -9 -59 -1 -12 6 -32 9 -46 5 -17 -4 -28 0 -37 14 -20 27
-40 31 -72 15 -23 -12 -26 -17 -17 -34 12 -22 6 -39 -15 -39 -18 0 -28 30 -15
45 12 15 3 46 -14 44 -6 -1 -30 -8 -53 -16z m167 -1008 c7 -9 10 -18 7 -21
-10 -11 -37 5 -37 21 0 19 14 19 30 0z"/>
<path d="M9075 3588 c-4 -9 -5 -33 -3 -54 2 -31 7 -39 23 -39 17 0 20 6 19 38
-2 44 -29 82 -39 55z"/>
<path d="M10587 3577 c-23 -19 -26 -26 -19 -52 5 -16 16 -31 25 -33 10 -2 17
0 16 5 -4 21 2 33 17 33 12 0 15 6 10 23 -3 12 -6 28 -6 35 0 18 -11 15 -43
-11z"/>
<path d="M10525 3560 c-3 -5 1 -10 9 -10 9 0 16 5 16 10 0 6 -4 10 -9 10 -6 0
-13 -4 -16 -10z"/>
<path d="M9610 3435 c8 -10 34 -39 57 -64 24 -25 46 -55 49 -66 4 -11 17 -33
29 -50 13 -16 30 -47 38 -67 22 -53 104 -138 133 -138 22 0 24 4 24 46 0 35
-6 53 -22 70 -54 54 -60 64 -55 78 6 15 -66 86 -87 86 -5 0 -33 24 -61 54 -34
35 -63 56 -86 61 -31 7 -33 6 -19 -10z"/>
<path d="M10275 3373 c-24 -60 -30 -68 -61 -71 -16 -1 -46 -7 -67 -13 -32 -9
-42 -8 -57 6 -12 11 -20 13 -25 5 -9 -15 4 -71 21 -88 8 -7 14 -24 14 -36 0
-21 7 -24 75 -35 41 -7 75 -16 75 -21 0 -4 9 -6 20 -3 13 4 22 17 26 42 4 20
15 47 25 60 11 13 19 31 19 40 0 10 5 22 11 28 9 9 9 20 0 44 -6 17 -11 43
-11 55 0 19 -5 24 -25 24 -19 0 -28 -8 -40 -37z"/>
<path d="M10410 3179 c-8 -29 -8 -45 -1 -52 6 -6 12 -27 13 -46 1 -26 3 -21 7
19 4 40 10 55 21 55 8 0 16 -10 18 -22 3 -21 28 -50 36 -42 2 2 -2 23 -11 47
-11 35 -12 46 -2 58 11 13 9 14 -14 9 -16 -4 -33 -2 -42 5 -11 9 -16 4 -25
-31z"/>
<path d="M10830 3195 c7 -8 25 -15 41 -15 19 0 29 5 29 15 0 11 -11 15 -41 15
-36 0 -40 -2 -29 -15z"/>
<path d="M11006 3171 c-14 -8 -26 -19 -26 -23 0 -4 -10 -12 -22 -19 -18 -10
-24 -8 -38 11 -14 19 -20 21 -39 11 -23 -13 -20 -31 6 -31 8 0 27 -6 41 -14
15 -8 46 -22 69 -31 29 -12 47 -28 57 -50 20 -42 20 -52 -1 -64 -15 -9 -13
-10 14 -11 17 0 38 -3 47 -6 14 -5 16 7 16 98 l0 104 -49 21 c-45 19 -50 19
-75 4z"/>
<path d="M9957 3013 c-12 -11 32 -34 85 -43 29 -6 72 -14 96 -19 47 -9 58 -3
39 23 -8 11 -25 17 -47 16 -70 -1 -77 0 -106 15 -31 16 -56 19 -67 8z"/>
<path d="M7991 2719 c-23 -36 -45 -56 -76 -69 -50 -22 -59 -42 -50 -110 6 -41
3 -56 -15 -86 -21 -32 -22 -40 -10 -77 6 -23 15 -49 19 -57 12 -23 57 -24 78
-3 19 19 86 230 99 311 4 23 11 42 16 42 9 0 5 34 -8 83 -8 27 -17 21 -53 -34z"/>
<path d="M12240 1911 c0 -5 5 -13 10 -16 6 -3 10 -2 10 4 0 5 -4 13 -10 16 -5
3 -10 2 -10 -4z"/>
<path d="M12280 1816 c0 -19 -5 -38 -11 -41 -6 -5 -3 -13 10 -22 12 -8 21 -23
21 -34 0 -30 15 -22 36 19 10 20 27 43 37 50 25 19 21 33 -7 26 -17 -4 -31 1
-45 15 -30 30 -41 26 -41 -13z"/>
<path d="M12172 1664 c-18 -24 -49 -52 -70 -63 -20 -10 -50 -32 -65 -47 l-28
-28 38 -13 c48 -17 73 -5 97 44 9 19 24 37 34 40 15 4 79 83 70 87 -2 0 -12 6
-23 12 -17 10 -24 5 -53 -32z"/>
<path d="M3996 1233 c1 -38 1 -38 48 -41 25 -2 46 0 46 3 0 11 -70 75 -82 75
-9 0 -13 -13 -12 -37z"/>
<path d="M4390 880 c0 -5 5 -10 10 -10 6 0 10 5 10 10 0 6 -4 10 -10 10 -5 0
-10 -4 -10 -10z"/>
<path d="M4197 836 c-3 -8 -31 -27 -61 -42 -52 -25 -54 -28 -49 -59 4 -27 2
-33 -18 -38 -21 -6 -21 -8 -8 -24 8 -10 20 -28 26 -40 12 -20 10 -25 -14 -40
-22 -15 -49 -18 -148 -18 -66 0 -123 -4 -126 -8 -3 -5 -42 -4 -85 1 -60 7 -85
6 -105 -4 -21 -10 -44 -10 -135 3 -126 17 -122 17 -280 8 -122 -8 -202 4 -188
27 4 6 -3 8 -17 6 -15 -2 -24 -10 -24 -21 0 -10 -6 -21 -13 -26 -10 -6 -10
-11 3 -21 9 -7 12 -16 6 -19 -5 -3 -85 -6 -178 -5 -124 0 -167 3 -166 12 3 14
-26 16 -47 2 -10 -6 -22 -4 -37 5 -17 12 -41 13 -130 5 -59 -4 -229 -9 -378
-9 -148 0 -301 -5 -340 -10 -38 -5 -110 -12 -160 -16 -111 -8 -126 -12 -118
-31 4 -10 -3 -14 -25 -14 -17 0 -34 5 -37 10 -9 15 -35 12 -35 -4 0 -17 -27
-29 -43 -19 -17 11 -237 13 -237 3 0 -6 23 -10 50 -10 28 0 50 -4 50 -9 0 -5
61 -15 135 -22 146 -14 168 -20 147 -41 -9 -9 -51 -13 -147 -13 -120 0 -163
-8 -95 -17 17 -2 24 -8 22 -20 -2 -13 10 -18 63 -23 71 -8 91 -21 48 -31 -22
-6 -572 2 -663 9 -21 2 -25 -3 -28 -31 l-3 -32 6085 0 c5922 0 6085 0 6091 19
3 10 3 26 -1 35 -5 14 -27 16 -163 16 -420 1 -796 43 -822 93 -17 30 -3 47 38
48 21 1 52 4 68 8 l30 7 -32 17 c-26 14 -33 24 -33 46 0 25 5 31 30 36 17 4
44 14 61 22 18 9 52 18 78 21 41 4 81 24 81 41 0 11 -109 31 -215 41 -55 4
-113 13 -130 20 -36 14 -163 32 -220 30 -51 -1 -210 28 -250 45 -16 7 -97 18
-178 25 -150 11 -197 21 -197 40 0 5 -4 10 -10 10 -5 0 -10 -7 -10 -15 0 -12
-14 -15 -68 -15 -46 0 -75 -5 -90 -16 -17 -11 -34 -14 -60 -10 -20 4 -89 6
-152 4 -162 -4 -207 -2 -270 11 -108 23 -117 23 -154 6 -32 -15 -46 -16 -139
-5 -63 8 -130 10 -168 5 -35 -4 -156 -9 -269 -11 -113 -2 -225 -8 -250 -13
-25 -6 -73 -10 -107 -11 -34 0 -65 -4 -68 -10 -3 -5 -21 -10 -38 -10 -18 0
-46 -9 -64 -20 -18 -10 -66 -26 -108 -33 -57 -11 -86 -23 -115 -46 -48 -38
-126 -54 -136 -27 -3 9 -1 23 5 30 8 10 9 16 1 21 -15 9 -2 25 20 25 17 0 47
36 38 45 -2 2 -85 8 -186 14 -113 7 -200 17 -225 27 -85 31 -112 36 -164 29
-29 -3 -59 -13 -67 -21 -8 -8 -26 -14 -40 -14 -14 0 -28 -5 -32 -11 -4 -6 -20
-8 -38 -5 -18 4 -46 2 -62 -3 -16 -5 -60 -14 -99 -21 -38 -6 -82 -21 -98 -31
-25 -18 -33 -19 -89 -9 -35 7 -71 16 -81 22 -13 7 -33 4 -70 -11 -74 -28 -240
-42 -477 -40 -113 1 -221 1 -240 0 -19 -1 -60 -1 -90 0 -30 1 -102 -4 -160
-11 -159 -18 -332 -22 -342 -7 -5 9 -16 7 -43 -7 -30 -17 -39 -17 -60 -6 -19
10 -30 10 -54 0 -17 -7 -31 -16 -31 -20 0 -5 -15 -11 -32 -15 -71 -13 -117
-29 -106 -36 7 -5 -11 -18 -45 -33 -46 -20 -84 -27 -209 -36 -147 -10 -363
-41 -410 -59 -20 -7 -19 -9 14 -15 20 -4 65 -6 100 -5 67 1 128 -15 112 -31
-10 -9 -235 -24 -624 -40 -129 -6 -266 -14 -305 -20 -45 -6 -93 -6 -135 1 -36
5 -172 18 -303 28 -185 15 -242 23 -256 35 -10 9 -29 16 -43 16 -15 0 -34 3
-43 7 -14 5 -9 10 21 25 20 10 45 18 53 19 9 0 1 7 -16 15 -52 22 -37 49 19
33 75 -21 383 -2 442 27 16 8 34 14 41 14 6 0 21 9 32 19 19 18 20 23 9 56
-15 43 -80 105 -111 105 -13 0 -26 8 -30 17 -8 22 39 63 72 63 19 0 43 25 43
44 0 13 -58 5 -63 -8z m-514 -393 c-7 -2 -21 -2 -30 0 -10 3 -4 5 12 5 17 0
24 -2 18 -5z m-47 -20 c24 -9 4 -23 -32 -23 -39 0 -74 15 -74 31 0 11 72 5
106 -8z"/>
<path d="M3930 698 c0 -7 4 -19 9 -27 6 -9 5 -21 -2 -32 -19 -30 3 -42 54 -32
57 11 64 39 19 77 -33 27 -80 35 -80 14z"/>
<path d="M2658 563 c7 -3 16 -2 19 1 4 3 -2 6 -13 5 -11 0 -14 -3 -6 -6z"/>
<path d="M4708 431 c-21 -4 -46 -16 -57 -25 -10 -9 -32 -21 -47 -26 -18 -5 19
-7 96 -4 171 7 182 10 161 42 -10 16 -102 24 -153 13z"/>
<path d="M870 420 c0 -5 12 -10 26 -10 14 0 23 4 19 10 -3 6 -15 10 -26 10
-10 0 -19 -4 -19 -10z"/>
<path d="M4288 383 c7 -3 16 -2 19 1 4 3 -2 6 -13 5 -11 0 -14 -3 -6 -6z"/>
</g>
</svg>
